<svg width="16" height="16" viewBox="0 0 16 16" fill="none" xmlns="http://www.w3.org/2000/svg">
<path d="M7.61731 3.0153C10.0919 3.21621 12.0398 5.37119 12.0398 8C12.0398 10.7614 9.89041 13 7.23897 13C5.55415 13 4.0713 12.0961 3.21428 10.7271C4.56165 10.3479 6.39833 9.42526 7.20834 7.17555C7.73903 5.70162 7.76926 4.23763 7.61731 3.0153ZM13 8C13 4.68629 10.4207 2 7.23897 2C7.17126 2 7.10381 2.00122 7.03662 2.00364C6.89672 2.00867 6.76589 2.07706 6.67841 2.19089C6.59093 2.30471 6.55551 2.45263 6.58142 2.59591C6.80109 3.81021 6.84948 5.32413 6.3093 6.82444C5.54115 8.95787 3.61893 9.66359 2.39426 9.89533C2.24674 9.92325 2.12022 10.0213 2.05222 10.1605C1.98422 10.2997 1.98255 10.4639 2.04771 10.6046C2.97816 12.6128 4.95255 14 7.23897 14C10.4207 14 13 11.3137 13 8Z" fill="#333333"/>
</svg>
